<?xml version="1.0" encoding="UTF-8"?>
<svg xmlns="http://www.w3.org/2000/svg" version="1.1" viewBox="0 0 1000 1000">
  <!-- Generator: Adobe Illustrator 29.3.1, SVG Export Plug-In . SVG Version: 2.1.0 Build 151)  -->
  <defs>
    <style>
      .st0 {
        fill: none;
      }

      .st1 {
        fill: #c8232f;
      }

      .st2 {
        fill: #fff;
      }

      .st3 {
        fill: #fbe429;
      }

      .st4 {
        fill: #f9b4ac;
      }

      .st5 {
        fill: #ffd8a3;
      }

      .st6 {
        fill: #99887e;
      }
    </style>
  </defs>
  <g id="Layer_1">
    <rect class="st0" width="1000" height="1000"/>
  </g>
  <g id="Layer_2">
    <g>
      <g>
        <polygon class="st5" points="340.87 448.63 658.61 529.26 690.41 591.37 698.3 631.95 691.34 662 667.72 691.42 630.22 713.44 593.07 723.08 554.52 725.01 506.41 715.66 473.84 686.23 456.38 657.01 417.69 656.32 361.28 642.02 321.24 610.1 315.52 609.21 309.72 612.45 289.56 604.21 276.67 589.22 267.94 570.02 266 550.18 271.05 529.11 288.9 504.75 300.68 496.01 298.09 476.63 305.42 460.11 321.07 450.38 340.87 448.63"/>
        <path class="st6" d="M378.73,260.64s-30.54,17.53-35.43,23.88c-4.89,6.35-10.16,15.3-8.31,17.54,1.85,2.25,6.07,2.83,11.39,4.42s28.07,1.08,30.75,0c2.68-1.08,13.59-4.42,13.59-4.42l6.92,22.74-6.5,22.19h-15.29l-24.68,4.24-1.31,11.04-5.48,16.67s.76,12.81.97,13.84,4.51,20.25,4.51,20.25l-4.83,12.41-3.85,20.23.49,11.01,19.05,10.65,8.52,5.85,6.2-1.5,8.53,4.94,18.79,13.47,15.64,5.91,26.62,16.59,21.02,21.7,16.34,20.01,28.46,7.03,22.53,5.32,63.43-2.01,39.22-14.59,15.73-16.44,2.13-20.41,5.71-28.56,3.63-31.36,28.56-30.24,11.75-15.81,11.95,11.86,13.1,13.9,32.19,4.36,8.46-8.16-8.7-23.61-13.62-30.11-10.65-15.62-25.24-6.44-16-17.85-36.19-.55-35.21,14.33-24.34,11.77-39.37-16.29-51.96,1.57-30.27-21.08-18.1-15.54-6.79-19.06-15.79-22.61-58.26-7.46Z"/>
        <g>
          <polygon class="st4" points="635.04 379.88 623.61 395.77 639.99 414.09 654.5 438.37 659.6 458.31 695.75 417.85 702.84 393.65 695.6 379.88 685.18 369.32 661.34 367.17 635.04 379.88"/>
          <polygon class="st4" points="417.69 292.97 440.54 328.84 423.86 333.5 405.15 341.05 396.09 348.38 397.64 321.73 389.4 302.07 410.29 292.97 417.69 292.97"/>
        </g>
        <g>
          <polygon class="st2" points="349.85 414.09 341.37 443.97 342.84 453.69 361.28 465.26 363.16 446.76 368.48 430.55 349.85 414.09"/>
          <polygon class="st2" points="402.76 435.43 386.01 474.36 402.76 489.8 430.91 476.63 460.64 449.27 464.59 423.42 437.03 430.55 402.76 435.43"/>
        </g>
        <g>
          <path d="M366.84,429s-9.58,6.89-9.98,12.16.1,9.26,2.36,12.54c2.26,3.27,1.48,6.79,1.48,6.79l2.78,3.26s-.38-7.55,1.07-10.05,5.98-6.16,6.85-9.72c.87-3.57,1.52-9.44,0-10.79-1.52-1.35-4.57-4.18-4.57-4.18Z"/>
          <path d="M399.88,442.66s-6.02,7.03-8.03,9.03c-2.01,2.01-5.69,16.08-5.36,18.33l-.48,4.34s-.69-3.35,8.35-6.36c9.03-3.01,13.05-7.19,13.8-9.49s-3.01-15.85-3.01-15.85h-5.27Z"/>
          <polygon points="329.87 456.69 324.06 476.63 329.87 496.01 348.44 494.09 375.44 487.92 371.57 476.35 353.41 460.02 336.69 453.86 329.87 456.69"/>
        </g>
        <path class="st2" d="M362.93,437.96c-2.95,1.58-4.5,6.46-2.42,8.75,1.01,1.11,2.75,1.49,4.18,1.15,3-.71,3.65-4.37,3.71-4.73.29-1.78-.06-4.65-2.01-5.53-1.52-.68-3.2.22-3.46.36Z"/>
        <path class="st2" d="M396.91,451.01c-2.23,1.53-4.12,5.03-2.87,7.8.55,1.21,1.79,2.48,3.41,2.66,1.98.22,3.41-1.29,4.1-2.02.31-.33,3.09-3.37,1.93-6.51-.07-.18-.94-2.42-3.05-2.88-1.62-.36-2.96.56-3.52.95Z"/>
        <path class="st2" d="M331.82,461.31c-1.72,2.55,3.52,8.9,5.62,11.44,4.57,5.53,9.82,7.85,12.41,8.88,10.49,4.16,16.41,4.02,17.69,1.55.37-.71.54-2.05-1.66-5.31-8.8-13.04-31.13-20.91-34.06-16.56Z"/>
        <path class="st1" d="M318.56,606.81c-.4,1.08-23.3,28.62-23.3,28.62l20.27,30.46,8.34,13.35,21.62,9.08,22.28,15.25,47.22,18.74,35.64,4.95,45.36-1.03,20.75-4.31-25.43-14.66-14.3-16.91-22.2-36.59-25.73,3.25-34.74-4.7-33.04-10.29-42.72-35.21Z"/>
        <g>
          <polygon class="st3" points="286.71 601.1 271.88 608.24 280.02 618.26 298.09 633.22 311.29 621.52 309.72 612.45 286.71 601.1"/>
          <polygon class="st3" points="329.65 663.5 315.52 675.97 334.85 679.63 358.2 675.94 364.56 663.5 360.34 652.17 341.25 657.01 329.65 663.5"/>
          <polygon class="st3" points="423.86 679.24 429.59 713.44 447.72 696.34 452.78 679.24 446.82 670.4 433.68 673.63 423.86 679.24"/>
        </g>
      </g>
      <g>
        <path d="M465.98,731.7c-11.7,0-24.16-.69-36.54-2.56-50.37-7.59-79.98-31.94-96.21-45.64l-30.5-2.73,9.55-12.5c-8.11-9.27-19.61-22.97-20.68-27.21-.89-3.57-.61-8.79-.34-11.81-8.47-6.58-21-16.48-22.6-18.61l-2.92-3.89,14.12-6.8c-7.28-8.03-20.97-27.12-17.46-54.28,3.88-30.09,25.61-46.24,33.1-50.98-1.03-7.95-2.56-30.49,11.17-41.68,11.36-9.26,23.42-7.6,30.25-5.43.82-8.56,3.17-25.03,9.58-36.81-2.05-5.26-7.39-20.4-6.16-31.98-.08-2.94-.07-22.65,13.21-32.45,8.46-6.24,20.15-6.98,34.77-2.2,3.18-3.82,9.78-15.4-1.13-37.6-4.27.77-12.6,2.18-21.48,3.12-23.93,2.53-30.13-.53-32.87-3.49-1.85-2-2.45-4.62-1.67-7.39.03-.12.06-.29.1-.51.38-1.98,1.16-6.1,4.67-10.9,17.99-24.63,39.29-30.1,43.4-30.93v-.06c5.2-.95,9.62-1.01,12.41-.88,6.95.3,13.72,1.91,20.15,4.79,2.53-.37,8.27-.94,14.78.13,11.79,1.93,20.46,8.25,25.09,18.27,3.34,7.24,5.43,13.44,7.11,18.42,3.38,10.03,5.08,15.07,12.38,18.49,6.1,2.86,14.2,8.12,22.03,13.21,7.54,4.89,17.86,11.6,20.54,11.83.72.06,3.05-.18,5.3-.4,14.91-1.51,49.39-5.01,83.34,16.64,11.21-7.18,60.59-37.06,90.55-26.48,8.89,3.14,15.29,9.44,19.06,18.75,10.41-1.98,27.69.93,37.91,23.49,1.73,3.82,3.46,7.57,5.14,11.22,12.94,28.08,21.49,46.63,13.15,54.33-9.28,8.56-41.93-.44-46.85-4.13-2.08-1.56-4.16-4.74-7.67-10.21-2.25-3.51-6.68-10.44-9.11-12.37-.9,1.21-2.25,3.66-3.46,5.88-5.26,9.59-14.93,27.22-37.47,42.97.5,8.82,1.52,39.98-7.68,57.67,5.29,7.92,23.93,36.51,33.06,59.09l.42,1.04c5.28,13.05,13.27,32.78,12.76,54.39-.61,26-13.44,48.48-38.12,66.81-55.34,41.1-128.25,28.51-137.48,26.68-4.98.99-30.24,5.71-60.71,5.71ZM317.9,674.1l18.56,1.66.97.82c21.32,18.02,47.86,37.83,93.2,44.66,45.93,6.92,94.75-3.13,95.24-3.23l.9-.19.89.22c.18.05,20,4.33,47.21,2.84,23.08-1.27,56.48-7.15,84.54-27.98,22.92-17.02,34.33-36.83,34.89-60.58.47-19.95-6.84-38.01-12.18-51.2l-.42-1.04c-10.15-25.11-33.41-59.31-33.65-59.65l-1.46-2.15,1.37-2.21c10.71-17.33,7.69-57.04,7.65-57.44l-.19-2.33,1.94-1.31c22.29-14.98,31.39-31.57,36.83-41.48,3-5.47,4.81-8.77,7.85-9.98,6.56-2.62,12.35,6.43,18.48,16.01,1.98,3.09,4.69,7.33,5.73,8.12,1.27.94,8.83,3.61,18.16,5.17,11.97,2,17.24.62,18.47-.51.38-.35,2.08-2.66-1.61-13.73-2.83-8.48-7.95-19.6-13.38-31.37-1.69-3.67-3.42-7.43-5.16-11.26-4.83-10.67-11.6-16.97-20.11-18.73-6.43-1.33-11.62.5-11.67.52l-3.94,1.41-1.26-3.99c-2.75-8.9-7.78-14.53-15.37-17.21-29.45-10.4-85.11,26.66-85.67,27.04l-2.23,1.5-2.23-1.5c-32.26-21.65-65.93-18.24-80.3-16.78-3.2.32-5.31.54-6.77.42-4.45-.37-11.73-4.98-24.23-13.09-7.61-4.94-15.47-10.05-21.07-12.67-10.39-4.87-12.98-12.55-16.56-23.18-1.7-5.05-3.63-10.77-6.79-17.62-8.46-18.33-32.13-13.73-32.36-13.68l-1.31.27-1.21-.57c-5.81-2.75-11.94-4.29-18.23-4.56-3.36-.15-7.14.12-10.63.76h0c-7.24,1.37-24.59,8.96-38.38,27.84-2.45,3.35-2.99,6.17-3.27,7.68-.09.46-.16.82-.24,1.1.91.62,5.77,2.94,25.74.85,12.25-1.28,23.87-3.57,23.98-3.59l2.91-.58,1.4,2.62c18.94,35.51-.24,51.07-1.07,51.71l-1.74,1.36-2.08-.75c-13.07-4.71-23.06-4.62-29.7.26-10.63,7.82-9.99,25.82-9.98,26.01v.32s-.02.32-.02.32c-1.39,11.85,6.22,29.91,6.3,30.1l.8,1.89-1.06,1.75c-8.68,14.3-9.85,40.12-9.86,40.38l-.27,6.54-5.7-3.23c-.57-.31-14.35-7.78-26.81,2.37-12.78,10.41-7.98,36.52-7.93,36.79l.55,2.9-2.61,1.38c-.27.14-27.34,14.91-31.4,46.4-4.05,31.37,18.71,51.16,18.94,51.36l4.68,3.98-14.97,7.22c4.5,3.73,11.99,9.66,18.94,15.05l1.82,1.41-.3,2.28c-.38,2.87-.74,8.39-.1,11.06,1.08,2.78,11.76,15.83,21.1,26.4l2.18,2.46-4.73,6.18Z"/>
        <path d="M460.64,408.46c12.67-10.4,29.45-15.41,45.88-15.18,15.48-.05,27.63,8.27,27.36,24.92-.1,4.3-.91,8.38-2.55,12.35-1.66-3.75-2.74-7.61-4.09-11.33-2.37-6.44-4.87-12.09-11.16-14.82-2.88-1.25-6.36-1.85-10.02-2.19-15.36-1.32-30.63,1.17-45.41,6.26h0Z"/>
        <path d="M461.76,367.17c14.88-10.23,30.91-19.02,47.8-26.13l2.56,7.58c-17.23,4.42-34.14,10.63-50.36,18.56,0,0,16.22-7.93,0,0Z"/>
        <path d="M413.65,268.08c-10.49,1.98-20.88,5.42-30.78,10.26,8.01-7.17,18.12-13.13,28.34-17.88,0,0,2.44,7.62,2.44,7.62h0Z"/>
        <path d="M387.07,298.82c9.23-7.29,20.94-11.29,32.62-11.86,3.85-.25,7.83.06,11.48,2.45-3.75,2.17-7.19,2.84-10.69,3.56-3.47.78-6.85,1.77-10.14,2.98-6.59,2.38-12.71,5.65-18.62,9.39,0,0-4.65-6.5-4.65-6.5h0Z"/>
        <path d="M434.09,329.93c-1.98-6.98-4.86-13.67-8.56-19.9-3.57-6-7.89-11.55-12.85-16.48l5.64-5.67c5.43,5.4,10.17,11.48,14.08,18.06,4.06,6.83,7.22,14.16,9.38,21.81l-7.7,2.18Z"/>
        <path d="M386.55,363.86c1.4-13.54,12.93-23.97,24.81-29.15,19.93-8.09,40.86-13.24,62.01-16.92,5.18-.71,6.52,6.79,1.35,7.88-16.56,2.91-33.04,6.34-49.26,10.8-20.87,5.44-26.67,10.1-38.92,27.39h0Z"/>
        <polygon points="354.24 408.48 370.9 433.79 369.89 434.64 348.08 413.59 354.24 408.48 354.24 408.48"/>
        <path d="M392.19,405.72c.09,4.4-4.34,7.43-5.25,11.09-.18,1.45.77,2.44,1.42,3.88,2.17,4.03,1.68,9.35-1.08,12.95-1.25,1.58-4.86,5.21-6.42,2.37-.33-.74-.11-1.55.45-2.07,1.61-1.69,2.48-3.85,2.58-5.98.2-2.5-.94-4.11-2.14-6.27-.94-1.65-1.48-4.3-.92-6.24,1.22-5.03,5.79-6.75,8.41-10.37.73-1.45,2.93-.98,2.94.65h0Z"/>
        <path d="M387.36,425.94c18.6,4.32,37.88,4.73,56.01-1.65,9.43-3.11,19.53-6.83,29.81-6.7,7.79.06,15.74,1.01,22.62,4.79,2.26,1.25,4.39,2.75,6.22,4.67-2.65-.16-5.11-.49-7.52-.84-5.54-.73-12.05-2.04-17.6-1.93-16.12-.3-30,9.19-45.72,11.97-15.16,2.98-31.13,1.65-45.82-2.56,0,0,1.99-7.75,1.99-7.75h0Z"/>
        <path d="M405.63,433.97c-1.11,2.62-1.2,5.76-.13,8.61l-5.84,2.78c-2.24-4.07-2.9-9.12-1.66-13.81l7.62,2.42h0Z"/>
        <path d="M380.1,540.6c-2.12,0-4.13-.06-5.97-.15-7.18-.33-15.57-1.15-23.37-4.75-14.35-6.62-23.76-22.26-22.88-38.04l7.99.44c-.69,12.38,6.99,25.14,18.25,30.33,6.54,3.02,13.98,3.73,20.39,4.02,14.28.65,24.74-1.18,32.89-5.79,2.45-1.38,5.5-3.62,6.15-6.46.62-2.67-.84-5.9-2.18-8.41-3.66-6.87-8.61-13.24-13.39-19.41-4.21-5.42-8.56-11.03-14.15-14.69-4.43-2.9-11.2-5.1-16.93-2.6l-3.21-7.33c7.35-3.22,16.51-2.01,24.52,3.23,6.71,4.39,11.69,10.81,16.08,16.48,4.99,6.43,10.15,13.08,14.13,20.56,2,3.75,4.13,8.72,2.92,13.97-1.05,4.56-4.42,8.47-10.01,11.62-10.19,5.76-21.85,6.96-31.22,6.96Z"/>
        <path d="M332.44,499.81c-1.35,0-2.88-.19-4.39-.94-4.11-2.03-5.15-6.7-5.66-8.94-1.38-6.19-2.95-13.2-2.42-20.27h0c.12-1.67,1.49-16.39,10.72-19.4,5.45-1.77,12.9,1.02,19.46,3.78l.14.06c12.12,5.1,22.33,14.51,28.02,25.84.69,1.38,2.8,5.57.47,9.41-1.76,2.9-5.02,3.67-6.59,4.04-12.29,2.91-24.89,5.03-37.46,6.29-.65.07-1.43.14-2.29.14ZM327.94,470.25c-.44,5.89.93,12.01,2.25,17.93.59,2.63,1.09,3.37,1.4,3.52.4.2,1.71.07,2.34,0,12.22-1.22,24.47-3.28,36.41-6.11.77-.18,1.21-.32,1.46-.43-.06-.29-.22-.81-.64-1.65-4.85-9.65-13.59-17.69-23.98-22.06l-.14-.06c-2.96-1.24-10.81-4.55-13.88-3.55-2.59.84-4.83,7.21-5.22,12.39h0Z"/>
        <path d="M404.15,491.67l-2.78-7.5c13.63-5.06,29.08-10.79,41.01-20.63,9.82-8.1,19.72-22.25,18.03-37.65l7.95-.87c1.71,15.54-6.3,32.66-20.89,44.7-12.98,10.7-29.1,16.68-43.32,21.96Z"/>
        <path d="M484.1,567.64c-6.27-7.23-11.42-14.99-16.86-22.73-15.69-22.5-38.03-39.7-63.31-50.22,0,0,2.44-7.62,2.44-7.62,29.02,6.81,54.2,26.93,69.48,52.28,4.99,8.58,8.5,18.28,8.26,28.3h0Z"/>
        <polygon points="446.82 491.56 428.81 504.11 425.51 496.83 446.82 491.56 446.82 491.56"/>
        <path d="M526.22,725.89c-20.48-2.46-39.18-15-55.58-37.27-12.82-17.41-24.31-40.83-34.15-69.62-16.65-48.74-22.95-96.88-23.02-97.36l7.93-1.02c.24,1.88,25.04,187.63,105.77,197.33l-.95,7.94Z"/>
        <path d="M636.81,490.1c10.73,9.22,9.92,25.96,20.34,35.2,0,0,2.13,2.03,2.13,2.04-6.56,17.29-22.24,29.26-39.07,35.28-15.69,5.64-31.99,7.93-48.46,9.07-32.74,2.05-65.89-3.43-96.27-15.78,0,0,3.03-7.4,3.03-7.4,7.32,2.95,14.8,5.52,22.4,7.68,36.92,10.32,80.02,11.25,116.53-1.07,14.07-5.09,27.36-14.55,33.4-28.4,0,0,1.04,4.6,1.02,4.57-12.47-10.11-9.24-27.72-15.04-41.19h0Z"/>
        <path d="M713.52,354.58c0,5.22.88,10.3,3.97,14.75,1.1,1.63,2.46,3.21,4.11,4.86-2.35.21-4.72-.36-6.93-1.41-6.92-3.33-11.06-11.9-9.06-19.42,0,0,7.9,1.23,7.9,1.23h0Z"/>
        <path d="M657.2,466.26l-1.51-7.11c-2.47-11.62-6.74-22.73-12.67-33.02-5.9-10.24-13.33-19.45-22.09-27.39l-1.84-1.67.68-2.39c3.94-13.81,15.92-21.07,27.12-26.34,7.48-3.52,13.44-5.42,19.3-6.17,5.46-.69,13.54-.61,20.99,3.69,6.13,3.54,11.03,9.39,15.41,18.4,2.11,4.34,4.49,10.11,4.23,16.35-.35,8.4-4.16,14.63-7.85,19.62-11.84,16.05-28,32.54-36.58,40.94l-5.19,5.09ZM628.24,394.6c8.54,8.08,15.84,17.33,21.71,27.53,5.15,8.93,9.12,18.44,11.85,28.35,8.78-8.86,21.23-22.12,30.74-35,3.11-4.22,6.03-8.98,6.29-15.21.19-4.45-1.74-9.03-3.43-12.52-3.65-7.51-7.53-12.26-12.21-14.97-4.31-2.49-9.99-3.44-15.98-2.68-5,.63-10.21,2.32-16.9,5.47-8.88,4.18-18.3,9.69-22.06,19.03Z"/>
        <path d="M335.51,521.26c-6.11-1.89-12.16-4.06-17.98-6.45-8.62-3.53-11.45-5.37-13.91-7.71-3.85-3.67-6.62-8.35-8.21-13.93l7.69-2.2c1.2,4.19,3.22,7.66,6.03,10.33,1.49,1.41,3.27,2.76,11.43,6.1,5.61,2.3,11.43,4.39,17.32,6.21l-2.37,7.64Z"/>
        <path d="M340.91,683.24c-8.9,0-17.76-1.14-26.4-3.41l-4.18-1.09,1.41-4.08c2.42-7,9.24-10.85,13.76-13.4h0c1.24-.7,2.49-1.41,3.73-2.11,4.59-2.61,9.33-5.3,14.14-7.79.53-.27,1.09-.58,1.68-.91,3.51-1.94,8.32-4.6,13.23-3.48,4.87,1.11,8.32,4.79,9.46,10.11,1.67,7.76-1.59,17.86-7.12,22.05-3.89,2.95-8.57,3.62-13.05,3.9-2.22.14-4.44.21-6.65.21ZM321.94,673.35c8.25,1.66,16.68,2.24,25.11,1.7,3.23-.2,6.53-.62,8.73-2.29,2.76-2.09,5.21-8.96,4.13-13.99-.65-3.03-2.26-3.73-3.42-4-1.94-.44-5.2,1.36-7.58,2.68-.65.36-1.28.71-1.87,1.01-4.66,2.41-9.34,5.07-13.86,7.64-1.25.71-2.5,1.42-3.75,2.13h0c-2.83,1.6-5.53,3.22-7.49,5.12Z"/>
        <path d="M426.65,719.41l-.99-5.22c-.58-3.03-1.35-6.18-2.16-9.51-1.74-7.13-3.55-14.5-3.63-21.58-.1-8.19,8.44-14.5,16.42-16.9,6.38-1.92,14.88-.4,18.79,6.21,2.36,3.99,2.61,9.16.76,15.36-3.72,12.44-12.85,23.38-24.43,29.25l-4.74,2.4ZM441.62,673.41c-1.05,0-2.09.15-3.04.43-5.19,1.56-10.77,5.5-10.72,9.15.08,6.17,1.77,13.09,3.41,19.78.35,1.45.71,2.92,1.06,4.39,7.48-5.19,13.25-13,15.84-21.69,1.19-3.98,1.19-7.01.02-9-1.24-2.1-3.91-3.05-6.56-3.05Z"/>
        <path d="M297.63,638.64l-4.75-6.43c5.4-3.99,11.69-9.9,13.13-14.53.69-2.23.5-2.81.42-2.93-.07-.09-.31-.2-.71-.33-3.62-1.18-10.24-4.27-20.85-9.75l3.67-7.11c9.94,5.13,16.54,8.24,19.62,9.24.82.27,3.21,1.04,4.84,3.38,2.57,3.7,1.18,8.19.65,9.88-2.46,7.93-12.02,15.64-16.02,18.59Z"/>
        <path d="M432.25,661.01c-18.85,0-41.85-3.26-65.64-14.32-15.64-7.28-44.76-20.82-61.33-53.37-19.47-38.25-8.86-76.55-3.4-91.25l7.5,2.79c-5.09,13.71-15,49.41,3.03,84.84,15.32,30.09,41.77,42.39,57.57,49.74,31.9,14.83,62.35,14.87,82.28,12.29l1.03,7.93c-6.14.8-13.24,1.35-21.04,1.35Z"/>
        <path d="M314.34,618.57l-6.11-5.16c2.46-2.91,4.22-6.41,5.09-10.11l7.78,1.84c-1.16,4.92-3.5,9.57-6.76,13.44Z"/>
        <g>
          <ellipse cx="314.01" cy="476.63" rx="2.72" ry="3.44"/>
          <path d="M314.01,480.52c-1.75,0-3.17-1.74-3.17-3.89s1.42-3.89,3.17-3.89,3.17,1.74,3.17,3.89-1.42,3.89-3.17,3.89ZM314.01,473.63c-1.26,0-2.28,1.35-2.28,3s1.02,3,2.28,3,2.28-1.35,2.28-3-1.02-3-2.28-3Z"/>
        </g>
        <g>
          <ellipse cx="318.56" cy="489.8" rx="2.51" ry="3.79"/>
          <path d="M318.56,494.04c-1.66,0-2.95-1.86-2.95-4.24s1.3-4.24,2.95-4.24,2.95,1.86,2.95,4.24-1.3,4.24-2.95,4.24ZM318.56,486.45c-1.12,0-2.07,1.53-2.07,3.35s.95,3.35,2.07,3.35,2.06-1.53,2.06-3.35-.95-3.35-2.06-3.35Z"/>
        </g>
        <g>
          <ellipse cx="360.71" cy="512.6" rx="3.85" ry="5.02"/>
          <path d="M360.71,518.07c-2.37,0-4.29-2.45-4.29-5.46s1.93-5.46,4.29-5.46,4.29,2.45,4.29,5.46-1.93,5.46-4.29,5.46ZM360.71,508.03c-1.88,0-3.4,2.05-3.4,4.57s1.53,4.57,3.4,4.57,3.4-2.05,3.4-4.57-1.53-4.57-3.4-4.57Z"/>
        </g>
        <g>
          <ellipse cx="379.9" cy="524.28" rx="4.06" ry="4.98"/>
          <path d="M379.9,529.7c-2.49,0-4.51-2.43-4.51-5.43s2.02-5.43,4.51-5.43,4.51,2.43,4.51,5.43-2.02,5.43-4.51,5.43ZM379.9,519.74c-2,0-3.62,2.04-3.62,4.54s1.62,4.54,3.62,4.54,3.62-2.04,3.62-4.54-1.62-4.54-3.62-4.54Z"/>
        </g>
      </g>
    </g>
  </g>
  <g id="Layer_3">
    <g>
      <g>
        <polygon class="st1" points="190.22 594.08 184.99 595.06 184.4 591.95 148.81 598.66 147.76 593.07 176.08 569.19 149.62 574.18 150.22 577.36 144.98 578.35 142.82 566.89 148.06 565.9 148.65 569.01 179 563.29 178.41 560.18 183.65 559.19 185.57 569.38 159.65 591.26 183.43 586.78 182.95 584.24 188.18 583.25 190.22 594.08"/>
        <polygon class="st1" points="201.6 629.76 193.06 632.59 191.7 628.48 195.19 627.33 191.01 614.68 179.45 618.5 183.29 630.12 179.33 631.43 175.49 619.81 161.68 624.37 165.85 637.02 171.46 635.17 172.95 639.68 162.29 643.2 153.66 617.08 158.72 615.41 159.71 618.42 189.04 608.73 188.05 605.73 193.11 604.05 201.6 629.76"/>
        <polygon class="st1" points="219.39 668.9 214.57 671.18 213.06 668 175.19 672.68 172.87 667.8 200.98 642.57 199.46 639.38 204.28 637.1 209.5 648.09 204.69 650.37 203.57 648.03 183.17 666.33 210.62 662.86 209.32 660.13 214.13 657.84 219.39 668.9"/>
        <polygon class="st1" points="238.14 698.75 230.55 703.59 228.23 699.95 231.32 697.97 224.16 686.74 213.9 693.28 220.48 703.6 216.96 705.85 210.38 695.53 198.12 703.35 205.28 714.58 210.26 711.41 212.81 715.41 203.34 721.45 188.55 698.26 193.04 695.39 194.75 698.06 220.79 681.46 219.09 678.79 223.58 675.92 238.14 698.75"/>
        <path class="st1" d="M244.27,707.29l-4.11,3.39,2.02,2.44-23.81,19.68-2.02-2.44-4.11,3.39,7.85,9.49,4.1-3.39-1.83-2.22,9.55-7.89,4.31,5.21-8.11,18,4.27,5.16,4.11-3.39-2.16-2.61,5.85-13.15,8.32.79,7.76-6.42,1.17-10.12-13.16-15.92ZM251.39,729.24l-5.94,4.9-4.35-.51-5.64-6.83,10.71-8.85,5.64,6.83-.42,4.46Z"/>
        <path class="st1" d="M298.55,763.24l-15.73-13.41-3.45,4.06,2.41,2.05-20.04,23.51-2.41-2.06-3.46,4.06,10.08,8.59,3.46-4.05-2.96-2.52,8.03-9.43,8.77,7.47,9.55-.65,6.31-7.4-.56-10.22ZM288.88,775.91l-4.78.28-6.63-5.65,9.02-10.58,6.85,5.84.31,4.52-4.77,5.59Z"/>
        <polygon class="st1" points="337.06 790.34 334.12 794.79 331.48 793.04 315.23 817.69 305.78 819.47 295.8 812.89 293.71 803.5 309.96 778.86 307.32 777.11 310.25 772.67 319.93 779.04 316.99 783.49 315.19 782.3 299.7 805.8 300.54 809.63 306.85 813.79 310.76 813.1 326.25 789.59 324.39 788.37 327.32 783.92 337.06 790.34"/>
        <polygon class="st1" points="373.21 808.59 368.05 819.14 364.75 817.53 367.57 811.77 359.29 807.73 345.73 835.48 349.09 837.12 346.75 841.91 334.4 835.88 336.74 831.09 340.1 832.73 353.66 804.98 345.38 800.93 342.56 806.69 339.26 805.08 344.41 794.53 373.21 808.59"/>
        <path class="st1" d="M422.03,831.79l-4.29-8.33-20.21-5.77-1.46,5.12,3.04.87-8.47,29.7-3.05-.87-1.46,5.12,19.66,5.61,8.47-4.24,2.85-9.97-2.63-4.95,4.74-2.46,2.81-9.83ZM408.61,855.96l-3.23,1.63-8.72-2.49,3.79-13.3,8.24,2.36,2.16,3.98-2.24,7.82ZM413.59,838.52l-3.36,1.81-8.65-2.47,3.56-12.46,8.86,2.53,1.65,3.39-2.06,7.2Z"/>
        <polygon class="st1" points="444.39 847.44 443.43 852.68 428.77 850.01 429.72 844.77 444.39 847.44"/>
        <path class="st1" d="M480.14,833.11l-22.75-1.83-.43,5.31,3.16.25-2.48,30.79-3.16-.26-.43,5.31,22.39,1.81,7.11-5.78,2.3-28.57-5.71-7.03ZM477.48,866.92l-2.76,2.08-10.84-.87,2.48-30.78,11.2.9,2.04,2.4-2.12,26.27Z"/>
        <path class="st1" d="M521.97,840.26l-6.67-7.26-12.74.46-6.36,7.43.98,27.42,6.87,6.67,12.02-.43,6.87-7.16-.97-27.13ZM513.72,869.3l-7.7.28-2.62-2.65-.91-25.33,2.49-2.9,8.06-.28,2.78,3.07.88,24.75-2.98,3.06Z"/>
        <polygon class="st1" points="561.1 863.52 555.91 870.25 543.58 872.06 536.4 866.28 532.36 838.79 538.46 830.83 550.57 829.05 556.75 833.96 557.62 839.87 552.28 840.66 551.68 836.6 549.21 834.63 541.3 835.8 538.72 839.01 542.45 864.37 545.09 866.46 552.92 865.3 555.44 862.1 554.38 854.9 552.24 855.22 551.62 851.01 559.1 849.91 561.1 863.52"/>
        <polygon class="st1" points="606.86 857.92 594.8 861.57 593.25 856.47 596.29 855.55 587.35 825.98 584.32 826.9 582.78 821.8 594.84 818.15 596.38 823.25 593.35 824.17 602.28 853.74 605.32 852.82 606.86 857.92"/>
        <polygon class="st1" points="646.27 842.66 616.82 820.19 627.43 844.94 630.4 843.66 632.5 848.56 621.78 853.15 619.68 848.26 622.59 847.01 610.43 818.62 607.51 819.87 605.42 814.97 614.94 810.88 641.93 831.44 632.4 809.2 630.01 810.22 627.92 805.32 638.04 800.98 640.14 805.88 637.23 807.13 651.5 840.42 646.27 842.66"/>
        <path class="st1" d="M709.68,798.93l-1.91,1.3-29.83-23.51-5.89,4,10.06,36.96-2.2,1.49,2.99,4.41,9.83-6.68-3-4.4-3.03,2.06-2.67-9.94,10.72-7.29,8.02,6.3-2.98,2.02,3,4.41,9.88-6.72-2.99-4.41ZM683,800.79l-4.38-16.17,13.07,10.26-8.69,5.91Z"/>
        <polygon class="st1" points="751.25 761.6 750.87 769.48 741.93 778.15 732.06 777.49 712.77 757.6 713.01 748.33 721.95 739.66 730.34 740.05 734.25 744.08 730.48 747.74 727.98 745.15 724.11 744.99 718.22 750.71 718.11 754.11 735.91 772.46 739.82 772.78 745.61 767.16 745.82 763.55 742.76 760.4 746.54 756.74 751.25 761.6"/>
        <path class="st1" d="M775.66,730.9l-20.91-17.3-9.86.17-8.12,9.82,1.33,9.69,21.14,17.48,9.54-.7,7.67-9.27-.79-9.89ZM766.05,745l-3.71.2-19.53-16.15-.51-3.79,5.14-6.21,4.14-.04,19.08,15.79.3,4.26-4.91,5.94Z"/>
        <path class="st1" d="M803.51,702.17l3.62-5.63-4.48-2.88-1.83,2.84-14.31-1.58-1.77-8.16-8.48-5.45-10,1.97-11.17,17.38,4.48,2.88,1.71-2.67,25.98,16.71-1.71,2.66,4.48,2.89,6.66-10.36-4.48-2.88-1.56,2.42-10.41-6.7,3.66-5.69,19.61,2.25ZM776.36,703.12l-11.69-7.51,4.79-7.45,4.38-.95,6.48,4.16.83,4.3-4.79,7.45Z"/>
        <polygon class="st1" points="825.31 659.87 788.38 662.79 812.8 674.14 814.17 671.2 819 673.45 814.08 684.03 809.25 681.78 810.59 678.91 782.58 665.89 781.24 668.76 776.41 666.51 780.78 657.11 814.59 654.41 792.65 644.21 791.56 646.56 786.73 644.32 791.37 634.33 796.21 636.57 794.87 639.44 827.71 654.71 825.31 659.87"/>
        <polygon class="st1" points="842.68 610.64 834.49 636.9 829.41 635.31 830.35 632.29 800.86 623.09 799.92 626.11 794.83 624.53 802.89 598.68 811.48 601.36 810.2 605.48 806.69 604.39 802.73 617.11 814.34 620.73 817.99 609.04 821.97 610.29 818.33 621.97 832.22 626.3 836.18 613.59 830.54 611.83 831.96 607.29 842.68 610.64"/>
        <path class="st1" d="M850.75,571.35l1.18-6.59-5.24-.94-.6,3.33-13.82,4.02-4.76-6.85-9.92-1.78-8.48,5.64-3.66,20.34,5.25.94.56-3.12,30.4,5.47-.56,3.12,5.24.94,2.18-12.12-5.24-.94-.51,2.83-12.19-2.19,1.2-6.66,18.97-5.44ZM826.04,582.64l-13.67-2.46,1.56-8.72,3.68-2.56,7.58,1.37,2.42,3.65-1.57,8.72Z"/>
      </g>
      <g>
        <path class="st3" d="M190.75,579.4l-11.6,2.18.48,2.55-8.28,1.56,17.76-15-2.98-15.85-11.61,2.19.59,3.11-23.99,4.52-.58-3.11-11.61,2.19,3.48,18.47,11.61-2.19-.6-3.19,10.82-2.04-20.04,16.9,2.13,11.32,35.59-6.71.59,3.11,11.6-2.18-3.36-17.83ZM184.99,595.06l-.59-3.11-35.59,6.71-1.05-5.59,28.32-23.88-26.46,4.99.6,3.18-5.24.99-2.16-11.46,5.24-.99.59,3.11,30.35-5.72-.59-3.11,5.24-.99,1.92,10.19-25.92,21.88,23.78-4.48-.48-2.54,5.23-.99,2.04,10.83-5.23.98Z"/>
        <path class="st3" d="M194.99,599.41l-11.21,3.71.99,3.01-23.18,7.65-.99-3.01-11.22,3.71,11.03,33.36,16.82-5.55-3.73-11.28-5.61,1.85-1.94-5.88,7.66-2.53,3.84,11.62,10.12-3.34-3.84-11.62,5.4-1.79,1.94,5.88-3.49,1.15,3.6,10.88,12.89-4.26,1.58-.52.23-.08-10.89-32.96ZM193.06,632.59l-1.36-4.11,3.49-1.15-4.18-12.65-11.56,3.82,3.84,11.62-3.96,1.31-3.84-11.62-13.81,4.56,4.17,12.65,5.61-1.85,1.49,4.51-10.66,3.52-8.63-26.12,5.06-1.67.99,3.01,29.33-9.69-.99-3,5.06-1.68,8.49,25.71-8.54,2.83Z"/>
        <path class="st3" d="M215.64,653.46l-10.67,5.07.74,1.56-12.52,1.65,9.31-8.41.68,1.43,10.67-5.07-8.2-17.24-.09-.19-1.49.71h-.01l-9.16,4.36,1.85,3.9-28.07,25.3,4.79,10.08,37.9-4.62,1.91,4.03,10.67-5.07-8.31-17.49ZM213.06,668l-37.87,4.68-2.32-4.88,28.11-25.23-1.52-3.19,4.82-2.28,5.22,10.99-4.81,2.28-1.12-2.34-20.4,18.3,27.45-3.47-1.3-2.73,4.81-2.29,5.26,11.06-4.82,2.28-1.51-3.18Z"/>
        <path class="st3" d="M229.87,708.55l13.05-8.32-18.66-29.27-9.95,6.35,1.7,2.67-20.58,13.12-1.71-2.67-9.95,6.35,18.89,29.63,14.93-9.52-6.38-10.02-4.98,3.17-3.33-5.22,6.8-4.33,6.58,10.32,8.99-5.73-6.58-10.32,4.79-3.06,3.33,5.22-3.1,1.98,6.16,9.65ZM224.16,686.74l-10.26,6.54,6.58,10.32-3.52,2.25-6.58-10.32-12.26,7.82,7.16,11.23,4.98-3.17,2.55,4-9.47,6.04-14.79-23.19,4.49-2.87,1.71,2.67,26.04-16.6-1.7-2.67,4.49-2.87,14.56,22.83-7.59,4.84-2.32-3.64,3.09-1.98-7.16-11.23Z"/>
        <path class="st3" d="M246.17,717.95l-10.71,8.85,5.64,6.83,4.35.51,5.94-4.9.42-4.46-5.64-6.83ZM243.18,731.06l-2.79-3.38,5.71-4.72,2.8,3.38-5.72,4.72ZM246.17,717.95l-10.71,8.85,5.64,6.83,4.35.51,5.94-4.9.42-4.46-5.64-6.83ZM243.18,731.06l-2.79-3.38,5.71-4.72,2.8,3.38-5.72,4.72ZM244.33,702.28l-9.1,7.52,2.02,2.44-18.81,15.55-2.02-2.44-9.1,7.52,12.38,14.99,9.1-7.52-1.51-1.84,4.55-3.76.55.67-8.15,17.94,8.07,9.77,9.11-7.52-2.89-3.5,4.08-9.07,7.1.67,10.1-8.35,1.45-12.59-16.93-20.48ZM256.26,733.33l-7.76,6.42-8.32-.79-5.85,13.15,2.16,2.61-4.11,3.39-4.27-5.16,8.11-18-4.31-5.21-9.55,7.89,1.83,2.22-4.1,3.39-7.85-9.49,4.11-3.39,2.02,2.44,23.81-19.68-2.02-2.44,4.11-3.39,13.16,15.92-1.17,10.12ZM241.1,733.63l4.35.51,5.94-4.9.42-4.46-5.64-6.83-10.71,8.85,5.64,6.83ZM248.9,726.34l-5.72,4.72-2.79-3.38,5.71-4.72,2.8,3.38Z"/>
        <path class="st3" d="M293.34,765.8l-6.85-5.84-9.02,10.58,6.63,5.65,4.78-.28,4.77-5.59-.31-4.52ZM285.93,773.49l-3.45-2.95,4.81-5.64,3.45,2.94-4.81,5.65ZM293.34,765.8l-6.85-5.84-9.02,10.58,6.63,5.65,4.78-.28,4.77-5.59-.31-4.52ZM285.93,773.49l-3.45-2.95,4.81-5.64,3.45,2.94-4.81,5.65ZM302.18,762.08l-20.16-17.19-7.66,8.99,2.41,2.05-15.83,18.58-2.41-2.06-7.66,8.99,15.89,13.54,7.66-8.98-2.96-2.52,3.83-4.5,7.45,6.35,11.89-.74,8.31-9.75-.76-12.76ZM292.8,780.86l-9.55.65-8.77-7.47-8.03,9.43,2.96,2.52-3.46,4.05-10.08-8.59,3.46-4.06,2.41,2.06,20.04-23.51-2.41-2.05,3.45-4.06,15.73,13.41.56,10.22-6.31,7.4ZM286.49,759.96l-9.02,10.58,6.63,5.65,4.78-.28,4.77-5.59-.31-4.52-6.85-5.84ZM285.93,773.49l-3.45-2.95,4.81-5.64,3.45,2.94-4.81,5.65Z"/>
        <path class="st3" d="M326.34,779.39l-6.5,9.86,1.44.95-13.43,20.37-4.69-3.09,13.43-20.37,1.39.91,6.49-9.86-15.62-10.3-6.5,9.86,2.64,1.74-15.29,23.2,2.63,11.83,13.29,8.76,11.97-2.2,15.29-23.2,2.65,1.74,6.49-9.86-15.68-10.34ZM334.12,794.79l-2.64-1.75-16.25,24.65-9.45,1.78-9.98-6.58-2.09-9.39,16.25-24.64-2.64-1.75,2.93-4.44,9.68,6.37-2.94,4.45-1.8-1.19-15.49,23.5.84,3.83,6.31,4.16,3.91-.69,15.49-23.51-1.86-1.22,2.93-4.45,9.74,6.42-2.94,4.45Z"/>
        <path class="st3" d="M342.41,789.95l-8,16.36,9.32,4.56,2.81-5.76,2.27,1.1-10.72,21.94-3.36-1.65-5.18,10.61,19.21,9.39,5.18-10.61-3.36-1.65,10.71-21.93,2.27,1.11-2.82,5.76,9.32,4.55,8-16.37-35.65-17.41ZM368.05,819.14l-3.3-1.61,2.82-5.76-8.28-4.04-13.56,27.75,3.36,1.64-2.34,4.79-12.35-6.03,2.34-4.79,3.36,1.64,13.56-27.75-8.28-4.05-2.82,5.76-3.3-1.61,5.15-10.55,28.8,14.06-5.16,10.55Z"/>
        <path class="st3" d="M414,827.93l-8.86-2.53-3.56,12.46,8.65,2.47,3.36-1.81,2.06-7.2-1.65-3.39ZM410.1,836.85l-3.94-1.13,1.76-6.16,3.94,1.13-1.76,6.16ZM408.69,844.16l-8.24-2.36-3.79,13.3,8.72,2.49,3.23-1.63,2.24-7.82-2.16-3.98ZM405.16,854.15l-3.94-1.12,2.01-7.06,3.95,1.12-2.02,7.06ZM414,827.93l-8.86-2.53-3.56,12.46,8.65,2.47,3.36-1.81,2.06-7.2-1.65-3.39ZM410.1,836.85l-3.94-1.13,1.76-6.16,3.94,1.13-1.76,6.16ZM400.45,841.8l-3.79,13.3,8.72,2.49,3.23-1.63,2.24-7.82-2.16-3.98-8.24-2.36ZM405.16,854.15l-3.94-1.12,2.01-7.06,3.95,1.12-2.02,7.06ZM426.11,831.38l-5.4-10.45-25.96-7.41-3.24,11.36,3.04.87-6.69,23.46-3.05-.87-3.24,11.36,25.2,7.19,10.71-5.25,3.57-12.53-2.04-3.58,3.57-1.75,3.53-12.4ZM419.22,841.62l-4.74,2.46,2.63,4.95-2.85,9.97-8.47,4.24-19.66-5.61,1.46-5.12,3.05.87,8.47-29.7-3.04-.87,1.46-5.12,20.21,5.77,4.29,8.33-2.81,9.83ZM405.14,825.4l-3.56,12.46,8.65,2.47,3.36-1.81,2.06-7.2-1.65-3.39-8.86-2.53ZM410.1,836.85l-3.94-1.13,1.76-6.16,3.94,1.13-1.76,6.16ZM400.45,841.8l-3.79,13.3,8.72,2.49,3.23-1.63,2.24-7.82-2.16-3.98-8.24-2.36ZM405.16,854.15l-3.94-1.12,2.01-7.06,3.95,1.12-2.02,7.06Z"/>
        <path class="st3" d="M426.55,840.9l-2.11,11.62,22.17,4.03,2.11-11.61-22.17-4.04ZM443.43,852.68l-14.66-2.67.95-5.24,14.67,2.67-.96,5.24Z"/>
        <path class="st3" d="M477.56,838.25l-11.2-.9-2.48,30.78,10.84.87,2.76-2.08,2.12-26.27-2.04-2.4ZM473.76,865.68l-5.82-.47,1.96-24.33,5.82.47-1.96,24.33ZM477.56,838.25l-11.2-.9-2.48,30.78,10.84.87,2.76-2.08,2.12-26.27-2.04-2.4ZM473.76,865.68l-5.82-.47,1.96-24.33,5.82.47-1.96,24.33ZM482.48,830.05l-28.64-2.31-.94,11.77,3.15.26-1.96,24.32-3.15-.25-.95,11.77,28.2,2.27,9.04-7.29,2.54-31.57-7.29-8.97ZM483.55,868.71l-7.11,5.78-22.39-1.81.43-5.31,3.16.26,2.48-30.79-3.16-.25.43-5.31,22.75,1.83,5.71,7.03-2.3,28.57ZM466.36,837.35l-2.48,30.78,10.84.87,2.76-2.08,2.12-26.27-2.04-2.4-11.2-.9ZM473.76,865.68l-5.82-.47,1.96-24.33,5.82.47-1.96,24.33Z"/>
        <path class="st3" d="M515.82,841.49l-2.78-3.07-8.06.28-2.49,2.9.91,25.33,2.62,2.65,7.7-.28,2.98-3.06-.88-24.75ZM507.2,866.29l-.88-24.39,5.69-.21.87,24.4-5.68.2ZM515.82,841.49l-2.78-3.07-8.06.28-2.49,2.9.91,25.33,2.62,2.65,7.7-.28,2.98-3.06-.88-24.75ZM507.2,866.29l-.88-24.39,5.69-.21.87,24.4-5.68.2ZM525.73,838.68l-8.46-8.99-17.06.61-7.88,9.15,1.1,30.65,8.5,8.2,16.27-.59,8.62-8.81-1.09-30.22ZM516.07,874.55l-12.02.43-6.87-6.67-.98-27.42,6.36-7.43,12.74-.46,6.67,7.26.97,27.13-6.87,7.16ZM513.04,838.42l-8.06.28-2.49,2.9.91,25.33,2.62,2.65,7.7-.28,2.98-3.06-.88-24.75-2.78-3.07ZM507.2,866.29l-.88-24.39,5.69-.21.87,24.4-5.68.2Z"/>
        <path class="st3" d="M562.4,846.15l-15.02,2.21,1.56,10.62,2.13-.32.53,3.56-5.49.81-3.55-24.14,5.48-.81.94,6.34,12.89-1.9-1.57-10.68-8.13-6.3-16.17,2.38-7.65,9.85,4.49,30.49,9.08,7.32,16.38-2.41,6.8-8.71-2.7-18.31ZM555.91,870.25l-12.33,1.81-7.18-5.78-4.04-27.49,6.1-7.96,12.11-1.78,6.18,4.91.87,5.91-5.34.79-.6-4.06-2.47-1.97-7.91,1.17-2.58,3.21,3.73,25.36,2.64,2.09,7.83-1.16,2.52-3.2-1.06-7.2-2.14.32-.62-4.21,7.48-1.1,2,13.61-5.19,6.73Z"/>
        <path class="st3" d="M608.03,848.62l-3.03.91-7.06-23.36,3.03-.92-3.41-11.3-19.37,5.85,3.41,11.3,3.04-.91,7.06,23.36-3.04.92,3.42,11.3,19.37-5.85-3.42-11.3ZM594.8,861.57l-1.55-5.1,3.04-.92-8.94-29.57-3.03.92-1.54-5.1,12.06-3.65,1.54,5.1-3.03.92,8.93,29.57,3.04-.92,1.54,5.1-12.06,3.65Z"/>
        <path class="st3" d="M656.28,841.89l-14.27-33.29,2.91-1.24-4.65-10.86-16.68,7.15,4.66,10.85,2.38-1.02,3.32,7.75-18.49-14.09-14.83,6.35,4.65,10.86,2.92-1.25,9.61,22.43-2.91,1.25,4.65,10.85,17.27-7.4-4.65-10.85-2.98,1.27-4.34-10.12,20.84,15.9,10.59-4.54ZM627.43,844.94l2.97-1.28,2.1,4.9-10.72,4.59-2.1-4.89,2.91-1.25-12.16-28.39-2.92,1.25-2.09-4.9,9.52-4.09,26.99,20.56-9.53-22.24-2.39,1.02-2.09-4.9,10.12-4.34,2.1,4.9-2.91,1.25,14.27,33.29-5.23,2.24-29.45-22.47,10.61,24.75Z"/>
        <path class="st3" d="M678.62,784.62l4.38,16.17,8.69-5.91-13.07-10.26ZM683.19,791.61l4.01,3.19-2.74,1.87-1.27-5.06ZM678.62,784.62l4.38,16.17,8.69-5.91-13.07-10.26ZM683.19,791.61l4.01,3.19-2.74,1.87-1.27-5.06ZM701.87,814.6l16.02-10.89-6.64-9.76-2.92,1.98-29.77-23.55-10.65,7.24,10.06,36.96-3.04,2.06,6.64,9.77,15.72-10.69-6.64-9.77-2.38,1.62-.99-3.24,7.8-5.31,2.66,2.12-2.51,1.7,6.64,9.76ZM694.75,797.33l-10.72,7.29,2.67,9.94,3.03-2.06,3,4.4-9.83,6.68-2.99-4.41,2.2-1.49-10.06-36.96,5.89-4,29.83,23.51,1.91-1.3,2.99,4.41-9.88,6.72-3-4.41,2.98-2.02-8.02-6.3ZM683,800.79l8.69-5.91-13.07-10.26,4.38,16.17ZM687.2,794.8l-2.74,1.87-1.27-5.06,4.01,3.19Z"/>
        <path class="st3" d="M747.02,751.76l-9.25,8.97,4.76,4.91-4.08,3.96-16.99-17.52,4.08-3.96,4.46,4.6,9.25-8.97-7.12-7.34-10.99-.48-11.99,11.63-.33,11.45,21.56,22.23,12.15.84,12.1-11.73.51-10.22-8.12-8.37ZM750.87,769.48l-8.94,8.67-9.87-.66-19.29-19.89.24-9.27,8.94-8.67,8.39.39,3.91,4.03-3.77,3.66-2.5-2.59-3.87-.16-5.89,5.72-.11,3.4,17.8,18.35,3.91.32,5.79-5.62.21-3.61-3.06-3.15,3.78-3.66,4.71,4.86-.38,7.88Z"/>
        <path class="st3" d="M770.66,734.8l-19.08-15.79-4.14.04-5.14,6.21.51,3.79,19.53,16.15,3.71-.2,4.91-5.94-.3-4.26ZM764.38,741.94l-18.8-15.56,3.62-4.38,18.81,15.55-3.63,4.39ZM770.66,734.8l-19.08-15.79-4.14.04-5.14,6.21.51,3.79,19.53,16.15,3.71-.2,4.91-5.94-.3-4.26ZM764.38,741.94l-18.8-15.56,3.62-4.38,18.81,15.55-3.63,4.39ZM779.37,729.01l-23.3-19.27-12.34.35-10.88,13.15,1.6,11.97,23.63,19.54,11.78-.91,10.37-12.53-.86-12.3ZM768.78,750.06l-9.54.7-21.14-17.48-1.33-9.69,8.12-9.82,9.86-.17,20.91,17.3.79,9.89-7.67,9.27ZM751.58,719.01l-4.14.04-5.14,6.21.51,3.79,19.53,16.15,3.71-.2,4.91-5.94-.3-4.26-19.08-15.79ZM764.38,741.94l-18.8-15.56,3.62-4.38,18.81,15.55-3.63,4.39Z"/>
        <path class="st3" d="M780.32,691.37l-6.48-4.16-4.38.95-4.79,7.45,11.69,7.51,4.79-7.45-.83-4.3ZM775.7,698.16l-6.24-4.01,2.38-3.7,6.23,4.01-2.37,3.7ZM780.32,691.37l-6.48-4.16-4.38.95-4.79,7.45,11.69,7.51,4.79-7.45-.83-4.3ZM775.7,698.16l-6.24-4.01,2.38-3.7,6.23,4.01-2.37,3.7ZM805.06,705.74l6.86-10.66-9.94-6.38-2.45,3.81-9.88-1.13-1.52-6.97-11.02-7.09-12.44,2.45-14.37,22.35,9.93,6.38,1.72-2.66,20.53,13.2-1.72,2.66,9.93,6.39,10.52-16.35-9.93-6.39-1.29,2-4.96-3.19.46-.73,19.57,2.31ZM790.65,712.31l1.56-2.42,4.48,2.88-6.66,10.36-4.48-2.89,1.71-2.66-25.98-16.71-1.71,2.67-4.48-2.88,11.17-17.38,10-1.97,8.48,5.45,1.77,8.16,14.31,1.58,1.83-2.84,4.48,2.88-3.62,5.63-19.61-2.25-3.66,5.69,10.41,6.7ZM773.84,687.21l-4.38.95-4.79,7.45,11.69,7.51,4.79-7.45-.83-4.3-6.48-4.16ZM775.7,698.16l-6.24-4.01,2.38-3.7,6.23,4.01-2.37,3.7Z"/>
        <path class="st3" d="M832.26,652.62l-32.84-15.27,1.33-2.87-10.71-4.98-7.64,16.45,10.7,4.98,1.1-2.35,7.63,3.55-23.17,1.85-6.8,14.63,10.71,4.98,1.34-2.88,22.13,10.29-1.33,2.88,10.7,4.97,7.93-17.04-10.71-4.98-1.37,2.94-9.99-4.64,26.13-2.07,4.86-10.44ZM788.38,662.79l24.42,11.35,1.37-2.94,4.83,2.25-4.92,10.58-4.83-2.25,1.34-2.87-28.01-13.02-1.34,2.87-4.83-2.25,4.37-9.4,33.81-2.7-21.94-10.2-1.09,2.35-4.83-2.24,4.64-9.99,4.84,2.24-1.34,2.87,32.84,15.27-2.4,5.16-36.93,2.92Z"/>
        <path class="st3" d="M830,602.68l-3.53,11.35,5.63,1.76-1.84,5.91-7.7-2.4,3.64-11.69-10.17-3.17-3.64,11.68-5.43-1.69,1.84-5.91,3.5,1.09,3.41-10.93-14.78-4.61-10.33,33.14,11.28,3.51.94-3.02,23.3,7.26-.94,3.03,11.27,3.51,10.46-33.54-16.91-5.28ZM834.49,636.9l-5.08-1.59.94-3.02-29.49-9.2-.94,3.02-5.09-1.58,8.06-25.85,8.59,2.68-1.28,4.12-3.51-1.09-3.96,12.72,11.61,3.62,3.65-11.69,3.98,1.25-3.64,11.68,13.89,4.33,3.96-12.71-5.64-1.76,1.42-4.54,10.72,3.35-8.19,26.26Z"/>
        <path class="st3" d="M825.19,570.27l-7.58-1.37-3.68,2.56-1.56,8.72,13.67,2.46,1.57-8.72-2.42-3.65ZM823.53,578.31l-7.3-1.31.78-4.33,7.3,1.31-.78,4.33ZM825.19,570.27l-7.58-1.37-3.68,2.56-1.56,8.72,13.67,2.46,1.57-8.72-2.42-3.65ZM823.53,578.31l-7.3-1.31.78-4.33,7.3,1.31-.78,4.33ZM853.56,574.05l2.24-12.47-11.62-2.09-.81,4.46-9.56,2.75-4.07-5.86-12.9-2.32-10.55,7.03-4.7,26.15,11.62,2.09.56-3.12,24.02,4.32-.56,3.12,11.62,2.09,3.44-19.13-11.62-2.09-.42,2.33-5.81-1.04.15-.85,18.97-5.37ZM842.77,585.64l.51-2.83,5.24.94-2.18,12.12-5.24-.94.56-3.12-30.4-5.47-.56,3.12-5.25-.94,3.66-20.34,8.48-5.64,9.92,1.78,4.76,6.85,13.82-4.02.6-3.33,5.24.94-1.18,6.59-18.97,5.44-1.2,6.66,12.19,2.19ZM817.61,568.9l-3.68,2.56-1.56,8.72,13.67,2.46,1.57-8.72-2.42-3.65-7.58-1.37ZM823.53,578.31l-7.3-1.31.78-4.33,7.3,1.31-.78,4.33Z"/>
      </g>
    </g>
    <g>
      <g>
        <path class="st1" d="M440,191.82l-7.96-4.98,4.83-7.56-4.15-16.64-13.21-8.53-34.22,8.54,2.17,8.67,5.15-1.28,12.55,50.27-5.15,1.29,2.16,8.67,33.28-8.31,8.77-13.27-4.22-16.87ZM402.81,167.49l15-3.74,5.24,3.54,3.04,12.19-3.37,5.45-14.64,3.65-5.27-21.09ZM430.12,214.08l-14.76,3.68-5.62-22.5,13.95-3.48,6.47,3.99,3.31,13.24-3.35,5.07Z"/>
        <rect class="st1" x="457.12" y="177.62" width="25" height="8.94" transform="translate(-13.18 38.54) rotate(-4.63)"/>
        <path class="st1" d="M543.29,148.72l-38.15-3.21-.75,8.9,5.29.45-4.35,51.63-5.29-.44-.76,8.9,37.56,3.17,11.96-9.66,4.04-47.9-9.55-11.84ZM538.63,205.42l-4.65,3.49-18.18-1.53,4.36-51.64,18.77,1.59,3.42,4.04-3.72,44.05Z"/>
        <path class="st1" d="M611.53,163.94l-20.53-5.97-14.04,8.5-12.84,44.19,7.43,14.23,19.37,5.63,14.72-7.8,12.71-43.72-6.82-15.06ZM596.3,217.62l-6.36,3.31-12.41-3.61-2.78-5.59,11.86-40.82,5.49-3.31,12.99,3.77,2.81,6.35-11.6,39.9Z"/>
        <polygon class="st1" points="666.77 209.12 669.89 202.98 668.41 197.89 656.46 191.82 649.8 193.73 630.34 232.07 631.92 237.48 643.77 243.49 650.32 241.53 655.84 230.66 652.61 229.02 655.83 222.66 667.14 228.4 656.7 248.97 643.06 253.16 624.43 243.7 620.2 228.82 641.3 187.25 657.38 182.27 675.69 191.56 679.39 204.28 674.85 213.22 666.77 209.12"/>
        <polygon class="st1" points="734.36 245.21 731.56 248.85 722.46 241.86 724 239.85 723.35 234.17 711.95 225.41 706.12 226.26 698.54 236.12 699.36 241.79 713.92 252.97 715.84 268.92 705.9 281.85 688.92 284.33 672.54 271.75 670.33 255.58 673.57 251.37 681.9 257.77 680.43 259.69 681.53 267.38 691.39 274.96 698.84 273.98 706.5 264.02 705.71 257.32 690.48 245.62 688.73 231.64 699.84 217.17 713.66 215.45 732.53 229.95 734.36 245.21"/>
      </g>
      <g>
        <path class="st3" d="M430.16,195.77l-6.47-3.99-13.95,3.48,5.62,22.5,14.76-3.68,3.35-5.07-3.31-13.24ZM420.25,210.94l-2.98-11.95,6.68-1.67,2.98,11.95-6.68,1.67ZM423.05,167.29l-5.24-3.54-15,3.74,5.27,21.09,14.64-3.65,3.37-5.45-3.04-12.19ZM412.94,181.64l-2.6-10.43,6.68-1.66,2.6,10.43-6.68,1.66ZM430.16,195.77l-6.47-3.99-13.95,3.48,5.62,22.5,14.76-3.68,3.35-5.07-3.31-13.24ZM420.25,210.94l-2.98-11.95,6.68-1.67,2.98,11.95-6.68,1.67ZM426.09,179.48l-3.04-12.19-5.24-3.54-15,3.74,5.27,21.09,14.64-3.65,3.37-5.45ZM412.94,181.64l-2.6-10.43,6.68-1.66,2.6,10.43-6.68,1.66ZM445.81,188.63l-5.98-3.49,3.72-5.54-5.23-20.97-16.61-10.67-43.94,10.97,4.79,19.22,5.16-1.29,9.92,39.73-5.16,1.28,4.8,19.22,42.65-10.65,11.17-16.6-5.29-21.21ZM435.45,221.96l-33.28,8.31-2.16-8.67,5.15-1.29-12.55-50.27-5.15,1.28-2.17-8.67,34.22-8.54,13.21,8.53,4.15,16.64-4.83,7.56,7.96,4.98,4.22,16.87-8.77,13.27ZM423.69,191.78l-13.95,3.48,5.62,22.5,14.76-3.68,3.35-5.07-3.31-13.24-6.47-3.99ZM420.25,210.94l-2.98-11.95,6.68-1.67,2.98,11.95-6.68,1.67ZM426.09,179.48l-3.04-12.19-5.24-3.54-15,3.74,5.27,21.09,14.64-3.65,3.37-5.45ZM412.94,181.64l-2.6-10.43,6.68-1.66,2.6,10.43-6.68,1.66Z"/>
        <path class="st3" d="M487.66,170.68l-37.68,3.06,1.6,19.75,37.68-3.06-1.6-19.75ZM457.52,187.55l-.72-8.91,24.92-2.02.72,8.91-24.92,2.02Z"/>
        <path class="st3" d="M538.93,157.33l-18.77-1.59-4.36,51.64,18.18,1.53,4.65-3.49,3.72-44.05-3.42-4.04ZM532.39,203.32l-9.75-.82,3.44-40.8,9.75.82-3.44,40.8ZM538.93,157.33l-18.77-1.59-4.36,51.64,18.18,1.53,4.65-3.49,3.72-44.05-3.42-4.04ZM532.39,203.32l-9.75-.82,3.44-40.8,9.75.82-3.44,40.8ZM547.24,143.6l-48.02-4.05-1.67,19.74,5.3.45-3.44,40.8-5.3-.45-1.66,19.74,47.3,3.99,15.21-12.17,4.46-52.96-12.18-15.09ZM548.8,208.46l-11.96,9.66-37.56-3.17.76-8.9,5.29.44,4.35-51.63-5.29-.45.75-8.9,38.15,3.21,9.55,11.84-4.04,47.9ZM520.16,155.74l-4.36,51.64,18.18,1.53,4.65-3.49,3.72-44.05-3.42-4.04-18.77-1.59ZM532.39,203.32l-9.75-.82,3.44-40.8,9.75.82-3.44,40.8Z"/>
        <path class="st3" d="M605.09,171.37l-12.99-3.77-5.49,3.31-11.86,40.82,2.78,5.59,12.41,3.61,6.36-3.31,11.6-39.9-2.81-6.35ZM590.29,215.37l-9.16-2.66,11.43-39.32,9.16,2.66-11.43,39.32ZM605.09,171.37l-12.99-3.77-5.49,3.31-11.86,40.82,2.78,5.59,12.41,3.61,6.36-3.31,11.6-39.9-2.81-6.35ZM590.29,215.37l-9.16-2.66,11.43-39.32,9.16,2.66-11.43,39.32ZM616.41,159.69l-27.49-7.99-17.37,10.43-14.35,49.41,9.24,17.52,26.21,7.62,18.36-9.5,14.16-48.72-8.76-18.77ZM605.64,222.72l-14.72,7.8-19.37-5.63-7.43-14.23,12.84-44.19,14.04-8.5,20.53,5.97,6.82,15.06-12.71,43.72ZM592.1,167.6l-5.49,3.31-11.86,40.82,2.78,5.59,12.41,3.61,6.36-3.31,11.6-39.9-2.81-6.35-12.99-3.77ZM590.29,215.37l-9.16-2.66,11.43-39.32,9.16,2.66-11.43,39.32Z"/>
        <path class="st3" d="M678.1,220.96l8.2-16.15-5.03-16.51-24.45-12.41-20.02,6.09-23.4,46.1,5.34,18.83,24.77,12.57,17.75-5.35,14.05-27.68-22.72-11.53-8.15,16.05,3.23,1.64-2.73,5.38-8.29-4.21,18.53-36.51,8.29,4.21-4.86,9.59,19.49,9.89ZM656.46,191.82l-6.66,1.91-19.46,38.34,1.58,5.41,11.85,6.01,6.55-1.96,5.52-10.87-3.23-1.64,3.22-6.36,11.31,5.74-10.44,20.57-13.64,4.19-18.63-9.46-4.23-14.88,21.1-41.57,16.08-4.98,18.31,9.29,3.7,12.72-4.54,8.94-8.08-4.1,3.12-6.14-1.48-5.09-11.95-6.07Z"/>
        <path class="st3" d="M733.32,257.06l7.07-9.19-2.83-20.91-22.5-17.29-19.41,2.45-12.95,16.86,2.55,19.48,15.8,12.14-7.21,9.39-8.33-6.4,4.78-6.23-18.48-14.2-7.36,9.57,2.86,21.85,20.11,15.46,22.75-3.24,11.55-15.04-2.67-21.7-14.55-11.18,5.96-7.76,7.66,5.88-4.05,5.27,19.25,14.79ZM711.95,225.41l-5.83.85-7.58,9.86.82,5.67,14.56,11.18,1.92,15.95-9.94,12.93-16.98,2.48-16.38-12.58-2.21-16.17,3.24-4.21,8.33,6.4-1.47,1.92,1.1,7.69,9.86,7.58,7.45-.98,7.66-9.96-.79-6.7-15.23-11.7-1.75-13.98,11.11-14.47,13.82-1.72,18.87,14.5,1.83,15.26-2.8,3.64-9.1-6.99,1.54-2.01-.65-5.68-11.4-8.76Z"/>
      </g>
    </g>
  </g>
</svg>